HIERARCHY
ROOT Hips
{
	OFFSET 0.000000 0.000000 0.000000
	CHANNELS 6 Xposition Yposition Zposition Zrotation Yrotation Xrotation 
	JOINT LHipJoint
	{
		OFFSET 0.000000 0.000000 0.000000
		CHANNELS 3 Zrotation Yrotation Xrotation
		JOINT LeftUpLeg
		{
			OFFSET 1.363060 -1.794630 0.839290
			CHANNELS 3 Zrotation Yrotation Xrotation
			JOINT LeftLeg
			{
				OFFSET 2.448110 -6.726130 0.000000
				CHANNELS 3 Zrotation Yrotation Xrotation
				JOINT LeftFoot
				{
					OFFSET 2.562200 -7.039590 0.000000
					CHANNELS 3 Zrotation Yrotation Xrotation
					JOINT LeftToeBase
					{
						OFFSET 0.157640 -0.433110 2.322550
						CHANNELS 3 Zrotation Yrotation Xrotation
						End Site
						{
							OFFSET 0.000000 0.000000 0.000000
						}
					}
				}
			}
		}
	}
	JOINT RHipJoint
	{
		OFFSET 0.000000 0.000000 0.000000
		CHANNELS 3 Zrotation Yrotation Xrotation
		JOINT RightUpLeg
		{
			OFFSET -1.305520 -1.794630 0.839290
			CHANNELS 3 Zrotation Yrotation Xrotation
			JOINT RightLeg
			{
				OFFSET -2.542530 -6.985550 0.000000
				CHANNELS 3 Zrotation Yrotation Xrotation
				JOINT RightFoot
				{
					OFFSET -2.568260 -7.056230 0.000000
					CHANNELS 3 Zrotation Yrotation Xrotation
					JOINT RightToeBase
					{
						OFFSET -0.164730 -0.452590 2.363150
						CHANNELS 3 Zrotation Yrotation Xrotation
						End Site
						{
							OFFSET 0.000000 0.000000 0.000000
						}
					}
				}
			}
		}
	}
	JOINT LowerBack
	{
		OFFSET 0.000000 0.000000 0.000000
		CHANNELS 3 Zrotation Yrotation Xrotation
		JOINT Spine
		{
			OFFSET 0.028270 2.035590 -0.193380
			CHANNELS 3 Zrotation Yrotation Xrotation
			JOINT Spine1
			{
				OFFSET 0.056720 2.048850 -0.042750
				CHANNELS 3 Zrotation Yrotation Xrotation
				JOINT Neck
				{
					OFFSET 0.000000 0.000000 0.000000
					CHANNELS 3 Zrotation Yrotation Xrotation
					JOINT Neck1
					{
						OFFSET -0.054170 1.746240 0.172020
						CHANNELS 3 Zrotation Yrotation Xrotation
						JOINT Head
						{
							OFFSET 0.104070 1.761360 -0.123970
							CHANNELS 3 Zrotation Yrotation Xrotation
							End Site
							{
								OFFSET 0.000000 0.000000 0.000000
							}
						}
					}
				}
				JOINT LeftShoulder
				{
					OFFSET 0.000000 0.000000 0.000000
					CHANNELS 3 Zrotation Yrotation Xrotation
					JOINT LeftArm
					{
						OFFSET 3.362410 1.200890 -0.311210
						CHANNELS 3 Zrotation Yrotation Xrotation
						JOINT LeftForeArm
						{
							OFFSET 4.983000 -0.000000 -0.000000
							CHANNELS 3 Zrotation Yrotation Xrotation
							JOINT LeftHand
							{
								OFFSET 3.483560 -0.000000 -0.000000
								CHANNELS 3 Zrotation Yrotation Xrotation
								JOINT LeftFingerBase
								{
									OFFSET 0.000000 0.000000 0.000000
									CHANNELS 3 Zrotation Yrotation Xrotation
									JOINT LeftHandIndex1
									{
										OFFSET 0.715260 -0.000000 -0.000000
										CHANNELS 3 Zrotation Yrotation Xrotation
										End Site
										{
											OFFSET 0.000000 0.000000 0.000000
										}
									}
								}
								JOINT LThumb
								{
									OFFSET 0.000000 0.000000 0.000000
									CHANNELS 3 Zrotation Yrotation Xrotation
									End Site
									{
										OFFSET 0.000000 0.000000 0.000000
									}
								}
							}
						}
					}
				}
				JOINT RightShoulder
				{
					OFFSET 0.000000 0.000000 0.000000
					CHANNELS 3 Zrotation Yrotation Xrotation
					JOINT RightArm
					{
						OFFSET -3.136600 1.374050 -0.404650
						CHANNELS 3 Zrotation Yrotation Xrotation
						JOINT RightForeArm
						{
							OFFSET -5.241900 -0.000000 -0.000000
							CHANNELS 3 Zrotation Yrotation Xrotation
							JOINT RightHand
							{
								OFFSET -3.444170 -0.000000 -0.000000
								CHANNELS 3 Zrotation Yrotation Xrotation
								JOINT RightFingerBase
								{
									OFFSET 0.000000 0.000000 0.000000
									CHANNELS 3 Zrotation Yrotation Xrotation
									JOINT RightHandIndex1
									{
										OFFSET -0.622530 -0.000000 -0.000000
										CHANNELS 3 Zrotation Yrotation Xrotation
										End Site
										{
											OFFSET 0.000000 0.000000 0.000000
										}
									}
								}
								JOINT RThumb
								{
									OFFSET 0.000000 0.000000 0.000000
									CHANNELS 3 Zrotation Yrotation Xrotation
									End Site
									{
										OFFSET 0.000000 0.000000 0.000000
									}
								}
							}
						}
					}
				}
			}
		}
	}
}
MOTION
Frames: 7
Frame Time: 0.008333
7.433607 17.446911 2.383234 177.949167 -86.731351 -163.162216 -10.141178 0.793335 -0.139522 -11.443128 0.667853 -16.435816 -2.361243 -0.332190 12.194267 0.645330 3.070882 -5.649248 0.128900 -0.000000 -26.755700 10.048176 0.017394 -1.877088 5.593714 -3.494165 -33.529276 0.499232 -3.514430 47.747560 -0.874671 -3.190986 -1.833494 -0.472800 -0.000000 -48.074900 -1.726376 -1.355286 3.234010 -1.342137 -1.233586 -2.172211 -7.703507 -1.254424 0.903022 9.725878 -3.392897 -3.582680 -3.899501 -0.318231 0.914168 0.000000 0.000000 0.000000 -5.152379 2.542117 2.644056 -47.064378 -18.967271 18.718413 -3.205395 -42.035881 -0.002727 3.270147 -0.008143 -0.001808 -0.170458 0.093469 0.000000 0.000000 0.000000 0.000000 0.000000 0.000000 0.000000 16.767288 -2.429776 1.150066 64.588154 1.473778 3.942225 3.590299 24.241465 0.008901 6.224437 4.328123 0.235812 0.054383 -0.038654 0.000000 0.000000 0.000000 0.000000 0.000000 0.000000 0.000000 
7.301930 17.449806 2.376576 179.397733 -86.660451 -164.699990 -10.187139 0.834250 -0.274779 -11.325384 1.205204 -15.560282 -2.383205 -0.354168 11.667109 0.601269 2.764184 -5.672906 0.112400 0.000000 -27.139300 9.924359 0.106417 -1.704816 5.678697 -2.936316 -33.848193 0.639010 -3.358354 45.648481 -0.932901 -3.539996 -2.045444 -0.529200 0.000000 -48.008300 -1.546162 -1.453837 3.226563 -1.299685 -1.340461 -2.149375 -7.695149 -1.354312 0.944281 9.737176 -3.722709 -3.626695 -3.863192 -0.315440 0.906034 0.000000 0.000000 0.000000 -4.900416 2.406201 2.663135 -46.252264 -19.804623 18.500844 -3.139976 -42.839454 -0.003406 3.414677 -0.009831 -0.002185 -0.173027 0.101782 0.000000 0.000000 0.000000 0.000000 0.000000 0.000000 0.000000 16.660923 -2.780478 1.129799 64.551676 0.928011 4.491658 3.559190 25.061500 0.008733 6.218452 4.357174 0.237110 0.053394 -0.037606 0.000000 0.000000 0.000000 0.000000 0.000000 0.000000 0.000000 
7.170498 17.450514 2.367762 -179.747514 -86.595297 -165.629465 -10.226823 0.872851 -0.408781 -11.228707 1.718436 -14.707147 -2.406185 -0.376179 11.160805 0.558112 2.463484 -5.681089 0.098600 -0.000000 -27.543100 9.804101 0.188519 -1.525199 5.730448 -2.397942 -34.142979 0.773255 -3.192199 43.440425 -1.000920 -3.935326 -2.129871 -0.601501 0.000000 -47.830300 -1.406682 -1.555664 3.210928 -1.265694 -1.449177 -2.127674 -7.684008 -1.456138 0.986930 9.752365 -4.055179 -3.672991 -3.826250 -0.312620 0.897118 0.000000 0.000000 0.000000 -4.633863 2.280195 2.680176 -45.408338 -20.607848 18.243118 -3.070659 -43.634829 -0.004167 3.538837 0.011947 -0.001867 -0.175167 0.110058 0.000000 0.000000 0.000000 0.000000 0.000000 0.000000 0.000000 16.559785 -3.133010 1.108483 64.503041 0.387654 5.052871 3.526363 25.915787 0.008557 6.243314 4.377325 0.239108 0.052150 -0.036559 0.000000 0.000000 0.000000 0.000000 0.000000 0.000000 0.000000 
7.039115 17.449018 2.356918 -179.470652 -86.540179 -165.963786 -10.259917 0.909532 -0.538312 -11.154321 2.192461 -13.876378 -2.429661 -0.398420 10.677142 0.517153 2.176818 -5.680663 0.087000 -0.000000 -27.952300 9.688614 0.263534 -1.340152 5.749662 -1.894600 -34.420223 0.902867 -3.015610 41.127051 -1.071215 -4.337391 -2.082043 -0.688500 0.000000 -47.504100 -1.307413 -1.661328 3.185649 -1.239946 -1.560354 -2.106871 -7.669759 -1.560486 1.033143 9.771434 -4.399423 -3.723993 -3.788704 -0.309748 0.886806 0.000000 0.000000 0.000000 -4.355760 2.165485 2.693751 -44.535953 -21.378023 17.946274 -2.997359 -44.421053 -0.004981 3.640903 0.051674 -0.000853 -0.176801 0.118283 0.000000 0.000000 0.000000 0.000000 0.000000 0.000000 0.000000 16.465280 -3.498684 1.085831 64.436814 -0.130051 5.641656 3.492612 26.786408 0.008384 6.293890 4.400550 0.242407 0.050720 -0.035536 0.000000 0.000000 0.000000 0.000000 0.000000 0.000000 0.000000 
6.907945 17.445291 2.344211 -179.739492 -86.497367 -165.740709 -10.285331 0.943923 -0.663307 -11.103097 2.616239 -13.056974 -2.453055 -0.421095 10.212549 0.479645 1.912712 -5.678804 0.077000 -0.000000 -28.353300 9.580170 0.331718 -1.154115 5.737613 -1.442390 -34.678559 1.029510 -2.828859 38.711444 -1.134331 -4.700172 -1.893956 -0.787700 -0.000000 -47.031800 -1.246096 -1.770113 3.156051 -1.221980 -1.673187 -2.085899 -7.652181 -1.666513 1.083161 9.794561 -4.760796 -3.781273 -3.750705 -0.306808 0.874627 0.000000 0.000000 0.000000 -4.066832 2.061542 2.702911 -43.642970 -22.118334 17.610504 -2.920280 -45.193935 -0.005818 3.720444 0.102776 0.000557 -0.177862 0.126480 0.000000 0.000000 0.000000 0.000000 0.000000 0.000000 0.000000 16.378801 -3.883216 1.062352 64.349879 -0.617290 6.251003 3.458437 27.668040 0.008222 6.370101 4.428423 0.246905 0.049127 -0.034567 0.000000 0.000000 0.000000 0.000000 0.000000 0.000000 0.000000 
6.776618 17.439248 2.329896 179.516999 -86.467761 -165.027351 -10.302242 0.976697 -0.781153 -11.074358 2.984033 -12.251286 -2.476318 -0.444691 9.769612 0.446319 1.674319 -5.687581 0.068000 0.000000 -28.735100 9.481187 0.392249 -0.967165 5.699570 -1.051549 -34.925178 1.155047 -2.631956 36.199126 -1.180286 -4.978918 -1.555693 -0.895400 -0.000000 -46.457999 -1.216252 -1.881525 3.118811 -1.210383 -1.787597 -2.066453 -7.630991 -1.774426 1.133545 9.819676 -5.124181 -3.839960 -3.712408 -0.303860 0.861983 0.000000 0.000000 0.000000 -3.769670 1.963919 2.708291 -42.736837 -22.817083 17.235873 -2.839669 -45.957003 -0.006660 3.780361 0.160775 0.002262 -0.178347 0.134674 0.000000 0.000000 0.000000 0.000000 0.000000 0.000000 0.000000 16.295764 -4.271167 1.038289 64.245904 -1.092128 6.848222 3.424218 28.560268 0.008076 6.473433 4.465997 0.253103 0.047356 -0.033695 0.000000 0.000000 0.000000 0.000000 0.000000 0.000000 0.000000 
6.645208 17.430797 2.314223 178.369678 -86.450616 -163.898585 -10.309752 1.007856 -0.891804 -11.066953 3.296221 -11.456789 -2.499594 -0.469474 9.348517 0.417515 1.462179 -5.718289 0.059200 -0.000000 -29.091500 9.394342 0.445084 -0.781053 5.641178 -0.730637 -35.161742 1.281563 -2.425476 33.597727 -1.199279 -5.132518 -1.058877 -1.005400 0.000000 -45.859499 -1.211306 -1.994410 3.075381 -1.203764 -1.902687 -2.048941 -7.605926 -1.883455 1.182091 9.845085 -5.483652 -3.898535 -3.673844 -0.300915 0.849330 0.000000 0.000000 0.000000 -3.465406 1.870866 2.709768 -41.827996 -23.470138 16.823939 -2.755857 -46.710803 -0.007495 3.823950 0.221306 0.004065 -0.178260 0.142900 0.000000 0.000000 0.000000 0.000000 0.000000 0.000000 0.000000 16.212879 -4.655370 1.014128 64.127065 -1.564135 7.407716 3.390095 29.465694 0.007948 6.602299 4.512733 0.260800 0.045420 -0.032962 0.000000 0.000000 0.000000 0.000000 0.000000 0.000000 0.000000 
